# xmcd
#
# Track frame offsets:
#	150
#	13726
#	30154
#	43392
#	61408
#	74521
#	90270
#	104724
#	121331
#	133325
#	152324
#	168360
#	182824
#	197291
#	220147
#	237064
#	257823
#	280789
#	297328
#	311636
#
# Disc length: 4342 seconds
#
# Revision: 1
# Processed by: cddbd v1.5.2PL0 Copyright (c) Steve Scherf et al.
# Submitted via: audiograbber 1.83.01
#
DISCID=1d10f414
DTITLE=Various Artist - Milano New Wave 1980-83
DYEAR=1983
DGENRE=Rock
TTITLE0=Other Side - The Taste of the Fables
TTITLE1=Other Side - Central
TTITLE2=Other Side - Praise
TTITLE3=Other Side - December, Fragment
TTITLE4=Other Side - Contrition
TTITLE5=State of Art - Downtown
TTITLE6=State of Art - Dantzig Station
TTITLE7=State of Art - Venice
TTITLE8=State of Art - At Night
TTITLE9=State of Art - Show Me
TTITLE10=La Maison - Igloo
TTITLE11=La Maison - Critical Situation
TTITLE12=La Maison - Mercedes
TTITLE13=La Maison - Jet Two
TTITLE14=La Maison - Narciso
TTITLE15=Jeunesse d'Ivoire - A Gift of Tears
TTITLE16=Jeunesse d'Ivoire - Silent Imagery
TTITLE17=Jeunesse d'Ivoire - Scenery
TTITLE18=Jeunesse d'Ivoire - Praise
TTITLE19=Jeunesse d'Ivoire - Moon
EXTD=
EXTT0=
EXTT1=
EXTT2=
EXTT3=
EXTT4=
EXTT5=
EXTT6=
EXTT7=
EXTT8=
EXTT9=
EXTT10=
EXTT11=
EXTT12=
EXTT13=
EXTT14=
EXTT15=
EXTT16=
EXTT17=
EXTT18=
EXTT19=
PLAYORDER=
